<svg width="100" height="100" viewBox="0 0 100 100" fill="none" xmlns="http://www.w3.org/2000/svg">
<rect width="100" height="100" rx="30" fill="white"/>
<rect width="100" height="100" fill="#192A56"/>
<path d="M0 45.8333H12.7907C12.5581 47.2222 12.5581 48.6111 12.5581 50C12.5581 51.3889 12.5581 52.7778 12.7907 54.1667H3.72093L0 62.5H14.186C20 83.7963 39.8837 100 62.7907 100C75.4651 100 87.3256 95.0231 96.2791 86.9213V74.8843C88.6047 85.0694 76.3954 91.6667 62.7907 91.6667C44.186 91.6667 28.2558 79.3981 22.907 62.5H79.5349L83.2558 54.1667H21.1628C20.9302 52.7778 20.9302 51.3889 20.9302 50C20.9302 48.8426 20.9302 47.2222 21.1628 45.8333H86.9767L90.6977 37.5H22.907C28.1395 20.8333 43.9535 8.33333 62.7907 8.33333C77.4419 8.33333 88.6047 14.9306 96.2791 25L100 16.7824C90.6977 6.48148 77.4419 0 62.7907 0C39.7674 0 19.8837 16.4352 14.186 37.5H3.72093L0 45.8333Z" fill="#FBC531"/>
</svg>
