<svg width="383" height="396" viewBox="0 0 383 396" fill="none" xmlns="http://www.w3.org/2000/svg">
<g clip-path="url(#clip0)">
<path d="M181.707 -100.306L168.951 -77.6686L143.441 -82.8232L161.04 -63.677L148.269 -40.9635L171.913 -51.7759L189.512 -32.6297L186.549 -58.5224L210.118 -69.3502L184.684 -74.4894L181.707 -100.306ZM70.846 -93.356L58.0747 -70.6425L32.5652 -75.7971L50.1638 -56.651L37.4079 -34.0139L60.976 -44.8417L78.5746 -25.6956L75.5969 -51.5118L99.2414 -62.3242L73.8082 -67.4634L70.846 -93.356ZM281.185 -50.8537L268.414 -28.1403L242.905 -33.2949L260.503 -14.1487L247.747 8.48836L271.392 -2.32401L288.99 16.8221L286.013 -8.99413L309.657 -19.8065L284.147 -24.9611L281.185 -50.8537ZM-21.7792 -31.8152L-34.535 -9.17812L-59.9682 -14.3173L-42.446 4.81339L-55.2019 27.4505L-31.5574 16.6381L-13.9588 35.7843L-16.9365 9.96798L6.70799 -0.844353L-18.8016 -5.99895L-21.7792 -31.8152ZM342.61 41.8153L329.855 64.4524L304.421 59.3132L321.959 78.3675L309.188 101.081L332.832 90.2686L350.431 109.415L347.453 83.5985L371.098 72.7861L345.588 67.6315L342.61 41.8153ZM-71.1994 67.727L-83.9553 90.364L-109.388 85.2249L-91.8663 104.356L-104.622 126.993L-80.9013 116.196L-63.3791 135.326L-66.3567 109.51L-42.7123 98.6978L-68.2218 93.5432L-71.1994 67.727ZM349.556 152.747L336.8 175.384L311.367 170.245L328.889 189.376L316.133 212.013L339.777 201.2L357.376 220.346L354.383 194.607L378.043 183.718L352.533 178.563L349.556 152.747ZM-64.2543 178.659L-77.0101 201.296L-102.443 196.157L-84.9211 215.287L-97.6924 238.001L-74.0479 227.188L-56.4493 246.335L-59.4115 220.442L-35.7671 209.63L-61.2767 204.475L-64.2543 178.659ZM300.135 252.289L287.379 274.926L261.946 269.787L279.468 288.918L266.697 311.631L290.342 300.819L307.94 319.965L304.978 294.072L328.622 283.26L303.113 278.105L300.135 252.289ZM-2.73741 271.267L-15.5087 293.98L-41.0182 288.826L-23.4196 307.972L-36.1755 330.609L-12.5311 319.797L4.99117 338.927L2.01356 313.111L25.658 302.299L0.224792 297.159L-2.73741 271.267ZM207.602 313.769L194.831 336.483L169.321 331.328L186.935 350.398L174.164 373.111L197.808 362.299L215.407 381.445L212.445 355.552L236.074 344.816L210.564 339.662L207.602 313.769ZM96.7411 320.719L83.9699 343.432L58.4603 338.277L76.0743 357.347L63.3031 380.061L86.9475 369.248L104.546 388.395L101.584 362.502L125.137 351.75L99.7034 346.611L96.7411 320.719Z" fill="#7F8FA6" fill-opacity="0.09"/>
</g>
<defs>
<clipPath id="clip0">
<rect width="473" height="469" fill="white" transform="translate(-90 -73)"/>
</clipPath>
</defs>
</svg>
