<svg width="418" height="368" viewBox="0 0 418 368" fill="none" xmlns="http://www.w3.org/2000/svg">
<path d="M0 192.5H53.4651C52.493 198.333 52.493 204.167 52.493 210C52.493 215.833 52.493 221.667 53.4651 227.5H15.5535L0 262.5H59.2977C83.6 351.944 166.714 420 262.465 420C315.444 420 365.021 399.097 402.447 365.069V314.514C370.367 357.292 319.333 385 262.465 385C184.698 385 118.109 333.472 95.7512 262.5H332.456L348.009 227.5H88.4605C87.4884 221.667 87.4884 215.833 87.4884 210C87.4884 205.139 87.4884 198.333 88.4605 192.5H363.563L379.116 157.5H95.7512C117.623 87.5 183.726 35 262.465 35C323.707 35 370.367 62.7083 402.447 105L418 70.4861C379.116 27.2222 323.707 0 262.465 0C166.228 0 83.114 69.0278 59.2977 157.5H15.5535L0 192.5Z" fill="#7F8FA6" fill-opacity="0.09"/>
</svg>
